<svg version="1.2" xmlns="http://www.w3.org/2000/svg" viewBox="0 0 400 364" width="400" height="364"><style>.a{fill:#0dafe3}.b{fill:#f69427}.c{fill:#0f64aa}.d{fill:#0697cf}.e{fill:#08375f}.f{fill:#96bad6}</style><path class="a" d="m200 5.9v13.3q-0.3 0.2-0.3 0.7l-24.2 13q-0.4 0.2-0.4 0.6 0 0.4 0.4 0.6l65.8 36.2 10.5 5.5q-14.1 12.7-30.3 20.9l-14.4-3.8q-0.2-0.1-0.2-0.2 0-0.2 0.1-0.3l4.7-2.7q0.2-0.1 0.1-0.2 0-0.1-0.2-0.1l-2.3 0.3 20.4-10.6q0.4-0.3 0.1-0.7-0.7-0.9-1.2-1.2-3.6-2.6-12.5-7.2-4.7-2.5-7.2-3.8-17.1-9.5-34.5-18.9 0-0.1-5.2-3.2-4.4-2.7-8.6-3.1-3.2 1.5-5.1 1.7-3.1 0.5-4.4-1.6-1.7-2.6-4.4-4-0.6-0.3-1.1 0l-12 5z"/><path class="b" d="m251.8 75.8l-10.6-5.5q2.3 1 4.5-0.1 13.3-7.2 20.1-11.1 1.4-0.8 2.3-2 0.1-0.2 0-0.3l-68-37.1q-0.3-0.6-0.1-0.5v-13.3l81.9 44.7q0.5 0.3 0.1 0.6z"/><path class="a" d="m357.4 18.9l-0.6-0.1q-0.4-0.1-0.7 0.2l-14.7 11.2q-3.9-0.4-7.9 0.6l-37.7 3.3q-0.6 0.1-0.8 0.7-0.2 0.6 0.2 1l4.2 4.2q1.4 1.4 3.4 1l22.9-4.2q0.3-0.1 0.5 0.2 0.1 0.3-0.2 0.5-9.8 7.4-19.5 15.7-4.9 4.2-14.3 12.2-12.7 10.8-22 18.8-1.8 1.5-6 4.9-4.8 3.8-7.1 5.8-5.2 4.5-12.2 9.6-10.5 5.1-19.5 13-0.6 0.4-1.2 0.8-6.2 3.4-11.5 7.2-2.6 2-8 4.9-4.4 2.4-6.7 3.9-4.5 3-9.3 5.2-1.7 0.8-5.5 2.9-5.9 3.2-8.9 4.4-0.6-1-0.4-2.5 7-5.3 14.2-10.4 11.5-8.1 32.4-24.1 5.5-4.2 8.5-6.5 18.6-14.2 55.5-44.8 6-4.9 8.9-7.3 0.6-0.6 0-1.2-11.2-12-24.3-23.6-0.4-0.3-0.2-0.8 0.1-0.6 0.7-0.6l87.6-7.9q0.8-0.1 0.7 0.7 0 0.6-0.5 1.2z"/><path class="c" d="m357.4 18.9q-0.3 2.3-1.3 3.7-2.3 3.5-2.8 7.9l-13.1 34.5q-4.6 8.9-7.1 18.6l-3.1 8.1q-1.8 2-1.7 4.9l-4.3 11.9q-1.4 0.9-1.8 0-4.2-9.1-9.2-18l-4.3-9.1q-0.2-0.3-0.4-0.4-0.2-0.1-0.3-0.1 0.2-0.1 0.2-0.2-0.1-0.5-0.5-0.7-0.4-0.2-0.7 0.1-4.2 3.2-7.6 6.4-0.8 1.1-1.9 1.6-2 0.6-3.1 2.4 0 0 0 0.1 0 0-0.1 0.1-43.6 33.5-87.8 64.6-0.5 0.4-0.5 1v30.8q0 0.6 0.4 0.8 0.5 0.3 1 0.1 41.4-23.1 67.9-37.9 1.6-0.9 1.7-3.1 0.3-10.8-0.3-22.2l11.4-6.8q0.2 18.1 0 36 0 2.2-2.1 4l-85.4 47.5q-0.6 0.3-1.2 0l-37.7-20.7q-1.9-1-3.8 0l-44.4 21.3q-0.1 0-0.1 0l-0.2-0.4q-0.1-0.2 0.1-0.3 7.8-5 21.8-14.1 58.9-38.2 114.4-81.1l0.9-0.1q0.3 0 0.6-0.2l61.7-47.2q0.5-0.3 0.7 0.2l7.7 18.3q0.1 0.2 0.4 0.2 0.3 0 0.4-0.2l19.5-51 14.7-11.2q0.3-0.3 0.7-0.2zm-163.5 145.7q0-0.3-0.3-0.4-0.2-0.2-0.5 0l-20.1 12.3q-0.3 0.1-0.3 0.5 0 0.2 0.3 0.4l20.5 10.8q0.2 0.1 0.5 0 0.2-0.2 0.2-0.5z"/><path class="b" d="m341.4 30.2l-19.5 51q-0.1 0.2-0.4 0.2-0.3 0-0.4-0.2l-7.7-18.3q-0.2-0.5-0.7-0.2l-61.7 47.2q-0.3 0.2-0.6 0.2l-0.9 0.1 19.4-17q4.8-2.5 9-7.3 0.5-0.7 2.2-4.4 0.2-0.5 0.6-0.8 3.7-3.4 5.2-4.5 2.5-1.7 5.4-4.2 3-2.6 5.9-4.6 2.6-1.8 7.4-5.4 4.8-3.7 7.3-5.5 3.2-2.2 5.1-5.5l22.6-19.3q0.2-0.1 0.1-0.3-0.1-0.2-0.3-0.2l-5.9-0.4q4-1 7.9-0.6z"/><path class="d" d="m160.6 41l-29.2 16q-0.3 0.1-0.3 0.4 0 0.3 0.3 0.5 32.2 17.1 64.4 34.6 3.8 2 6.9 0.7 1.6-0.7 6.6-3.5l2.3-0.3q0.2 0 0.2 0.1 0.1 0.1-0.1 0.2l-4.7 2.7q-0.1 0.1-0.1 0.3 0 0.1 0.2 0.2l14.4 3.8-14.4 7.9q-1.1 0.6-1.1 1.8v4.6q0 1.1-0.9 1.8l-10.5 8q-0.2 0.1-0.3 0-0.2-0.1-0.2-0.3v-13.8q0-1.3-1.2-1.9l-21.8-12q-0.3-0.2-0.7 0-0.4 0.3-0.4 0.7v52.8q0 0.5 0.4 0.3l3.5-2.3q-0.2 1.5 0.4 2.5l-13 7.5q-0.4 0.2-0.9 0.1l-0.6-0.1q-0.2-17.4 0.1-29.3 0.1-7.9-0.8-15l-95 51.8q-0.4 0.2-0.2-0.2 0.2-0.6 0.9-1.1 22.5-15.7 44.9-31.6 2-0.1 2-2.6-0.1-35.5-0.1-71.4 1.8-2 5.2-3.8 13.2-7.1 16.8-9l12-5q0.5-0.3 1.1 0 2.7 1.4 4.4 4 1.3 2.1 4.4 1.7 1.9-0.3 5.1-1.8zm4.7 50.2q0.4-0.2 0.4-0.7 0-0.4-0.4-0.6l-41.2-21.9q-0.4-0.2-0.7 0-0.4 0.3-0.4 0.7v49.7q0 0.5 0.4 0.7 0.4 0.2 0.7 0z"/><path class="d" d="m340.2 65l-7.1 18.6q2.5-9.7 7.1-18.6z"/><path class="d" d="m330 91.7l-1.7 4.9q-0.1-2.9 1.7-4.9z"/><path class="c" d="m244.9 104.5q-46.8 36.7-97.3 70-1.4 0.9-3 0.3-5.2-2.2-10.6-5.7-0.1-0.1-0.1-0.1l-2.9-1.4q-2-0.8-3.6 0.7l-47.2 19q-0.1 0-0.1 0l-0.2-0.3q-0.1-0.2 0.2-0.4l64.4-37.4q0.1-0.1 0.2 0l0.1 0.2q0.1 0.2 0 0.4l-8.5 5.9q-0.3 0.3-0.3 0.6 0.1 0.4 0.4 0.6l10.3 5.7q0.4 0.2 0.8 0 0.8-0.5 1.4-0.6 2.8-0.9 4.7-3.2l4.9-3.1q0.8-0.1 1.3-1.4l0.6 0.1q0.5 0.1 0.9-0.1l13-7.5q3-1.2 8.9-4.4 3.8-2.1 5.5-2.9 4.8-2.2 9.3-5.2 2.3-1.6 6.7-3.9 5.4-2.9 8-4.9 5.3-3.8 11.5-7.2 0.6-0.4 1.2-0.8 9-7.9 19.5-13z"/><path class="b" d="m287.6 105.2q1.3 6.2 0.5 12.8l-11.4 6.8-57.3 32.1q-0.4 0.2-0.6-0.2l-0.2-0.2q-0.1-0.1 0.1-0.2z"/><path class="b" d="m41 192.8q-0.2 0.1-0.3-0.1-0.1-0.2 0.1-0.4l111.7-70.8q0.5-0.2 0.5 0.3v12.7q0 1.2-1 1.6-8.3 3.9-24.2 12.3-11.3 5.9-16.7 8.6-13.9 6.8-37.9 19.4-2.1 1.1-7.1 3.6-10.6 5.3-15.5 8.1-4.6 2.7-9.6 4.7z"/><path class="a" d="m131 167.6l-3.6 0.7q1.6-1.5 3.6-0.7z"/><path class="e" d="m106.8 233.9q2.1 1.3 4.3 0.7 2.6 0.3 4.8 1.9l5.6 5.6q1.9 3.9 2 8.1l-0.1 14.4q-0.1 15.4-13.4 17-1.6-0.6-3 0.4-11.7 0.4-23.5 0.2-5.6-0.1-10.6-2.6-7.2-3.7-7.5-13.7l-0.1-12.8q-0.2-3.5 0.8-7.7 1.8-7.2 8-9.7 4.2-1.7 13.2-1.8 9.8-0.1 19.5 0zm-22.5 9.7q-1.5-0.4-2.5 0.4l-2 0.7q-2.5 0.4-2.7 2.7-2.7 8.2-0.4 20.3 0.4 2.9 3 3.7l1.8 0.4q0.1 0.6 1 0.4 1.1 0.5 2 0.6 4.6 0.1 18.5 0.1 2.1 0 6.4-1.2 0.5-0.1 0.9-0.4 2.3-2.2 2.3-5.5 1.5-13.1-1.1-18.9 0-1.4-1.5-2.2-3.3-1.7-6.2-1.3-9.9-0.9-19.5 0.2z"/><path class="e" d="m172.3 233.9q1.7 1.4 4.3 0.9 7.1 2.4 8.2 10.9 0.4 3.4 0.1 7.3-0.3 4.8-1.9 6.9-1.2 0.5-1.9 2.4l-5.4 3.1q-0.2 0.2 0 0.4l11.8 15.5q0.2 0.3 0 0.5-0.1 0.3-0.4 0.3h-10.5q-1.6 0-2.5-1.3l-7.6-10.9q-0.2-1.7-1.6-2.3-1.1-1.7-3.8-1.7-7.9 0.1-15.9 0-0.3 0-1.1 0.4-0.2-0.3-0.5-0.2-0.4 0.2-0.4 0.8 0.2 7.1 0 13.5-0.1 1-0.9 1.3l-0.5 0.1-9-0.3 0.1-46.5q1-0.2 1.3-0.9zm-28.5 9.1q-0.8 7.2-0.4 14.2 0 0.4 0.4 0.5 0.2 0.1 0.3-0.1 1.3 0.4 2.4 0.4 9.9 0.1 19.7 0.1 2.7 0 6.1-1.1 4.3-4.8 1.3-11.7-0.2-0.5-0.6-0.8-1.9-1.4-4.1-1.2z"/><path class="e" d="m329.4 245.6q-0.6 1.9 0.5 4l0.1 15q-1 2.9-0.6 5.8-0.5 2.9-2.3 5.6-1.6 1-2.9 2.5-0.9 1.2-5 2.4-1.1 0.7-3 0.7-2.6-0.3-5.1 0.4l-20.4 0.1q0.2-0.1 0.3-0.3 0 0 0 0 0 0 0 0 0 0 0 0-4.7-0.2-9.2-1.4-1.6-1-3.1-1.3-2.8-2.1-4.7-5 0.4-1.1-0.8-2.1-0.5-1-0.7-2.2 0.5-1.5-0.3-1.9-0.3-5-0.3-10.2 0-0.7 0-1.9 0-6.6 0.5-9.3 0.8-4.1 3.6-7.7 1.5-1.8 5.6-3.4 3.3-1.4 10.4-1.5 13.6-0.1 20.8 0 6.3 0.1 10.5 2.9 4.7 3 6.1 8.8zm-39.1-2q-1.3-0.5-2.4 0.4-4.3 0.6-4.9 6.4-1.5 9.4 0.4 18.4 1.9 2.5 5 3.3 12.2 2 24.4 0 5.6-0.7 5.9-5.8 0.6-9.2 0.1-16.5-0.4-5.2-5.8-5.9-12.4-1.6-22.7-0.3z"/><path class="e" d="m14.7 236.1l-0.4 16.3q0 0.1 0.1 0.2 0.2 0.3 0.4 0.1 0.2 0.1 0.3 0.2 0.2 0.1 0.3 0.1h28.6q1 0 1-1v-16.1q0-0.8 0.5-1.3 0.5-0.5 1.3-0.5h8.6q0.6 0 0.6 0.5v44.4q0.1 3.3-3 2.8-3.2-0.4-5.6 0.1-0.3 0.2-1.9-0.3l0.2-19.2q0-0.8-0.9-0.8l-21.3-0.1-8.1-0.2q-1.3 0-1.3 1.4l0.2 18.7q-0.2 0.6-0.8 0.6-4 0-7.6 0-0.8 0-1.3-0.6-0.6-0.5-0.6-1.3v-45.4q0-0.6 0.6-0.6 4.2-0.2 7.7-0.2 2.9 0 2.4 2.2z"/><path class="c" d="m134.2 234.1q-0.3 0.7-1.3 0.9l0.1-0.4q0.1-0.5 0.6-0.5z"/><path class="e" d="m194.2 280q0.8-1.2 0.7-4.3-0.2-10 0-36.2 0-2.3-0.3-5.2l9.5-0.2q0.9 0 0.9 0.9v46q0 0.9-0.9 0.9-4.4 0.2-7.9 0-1.2 0-2-1.9z"/><path class="e" d="m263.6 247.2q-1.3 0.9-1.8 2-1.6 1.5-3.6 2.4-3 1.1-5.2 3.3-0.7 0.6-1.2 0.6-1.8 0.4-2.9 1.7l-4.6 2.8-8.9 5.2-3.1 1.9q-1.5 0.2-2.5 1.4-0.4 0.4-0.8 0.6-1.8 0.4-3 1.9 0.4-0.1-0.1 0.5 0-0.2-0.3-0.1-0.2 0.2-0.1 0.4 0.5 1.1 1.9 1.1 14.1 0.1 25.1 0.2 7.3 0 11.2-0.9l0.2 9q0 0.7-0.7 0.7-22.1 0.3-44.4 0.1-1.4-0.1-3.1-0.9-1.5-2.5-1.6-5.6-0.5-2.8 0-5.7 0.7-0.6 0.7-2.1 1.5-2.1 4.5-3.9 14.4-8.6 30.2-17.8 1.5-0.9 2.4-1.6 0.5-0.3 0.3-0.9-0.2-0.5-0.7-0.5h-35q-1.4 0-1.4-1.5v-6.3q0-1.1 1-1.1 21 0 43.6-0.2 2 0 3.5 1.4 0.3 0.4 0.4 0.9 1.3 5.6 0 11z"/><path class="e" d="m352.9 234q2 1 3.5 0.8 3.2 2.1 4.9 5.8l20.7 27.6q1 1.2 1.8 2.4 0.5 0.7 1.1 0.4 0 1.1 0.6 0.1 0.1-0.4 0.1-0.7l0.3-36.1 9.5-0.2q-0.1 20.6 0 40.9 0 3.6-1.5 6.2-0.7 0.3-1.1 0.4l-11.1 0.1q-2.9-0.6-4.8-3.4l-8.1-10.9-5.7-7.6q0-0.1 0-0.2 0 0 0.1-0.1-1.5-2.7-3.7-4.8-0.1-0.1-0.2-0.2l-5.4-7.3-2.5-3q-0.4-0.5-1-0.3-0.5 0.2-0.5 0.8v36.8h-9.9l0.3-44.4q1.1-2.1 3.6-2.8z"/><path class="f" d="m372.7 323.4q0 12.7-8.6 23.6 0 0-0.1 0.1-2.2 2.8-3.4 3.4-2.1 1-4.2-1.4-0.9-1 0.1-2 10.8-10.4 10.8-23.7 0-13.4-10.8-23.8-1-0.9-0.1-1.9 2.1-2.5 4.2-1.4 1.2 0.6 3.4 3.3 0 0.1 0.1 0.2 8.6 10.8 8.6 23.6z"/><path class="e" d="m292.1 306.5l7 7.5 1.8 2.5q0.5 0.6 1 0.1 3-3 6.5-7.4 2.2-2.9 8.6-8.6 0.2-0.2 0.5-0.3 0.3 0 0 0.1 3.3 0.6 6.3-0.5 2.5-0.4 4.9 0.4 0.4 0.1 0.5 0.5 0.1 0.4-0.2 0.7l-12.2 12.7-7.3 7.5-0.8 1.1q-0.8 0.9 0.1 1.8l2.6 2.5q3.8 5 8.6 8.9l10.1 10.6q-0.4 0.8-0.3 1.4l-12-0.1-3-3.3-8.7-9.1q-1.2-2.4-3.4-3.8-0.8-1.6-2-1.4-2.2 1.4-3.3 3.7l-9 9.4-4.6 4.6-11.4-0.1q-0.5 0-0.4-0.6 0.1-1.1 1.2-1.9 1.6-0.1 1.5-1.6l15.8-16.4q2.2-1.4 3.6-3.6 0-0.1 0-0.2-0.1 0-0.1 0v-0.6q-0.1-0.5-0.4-0.8l-4.8-5-6.3-6.8-7.9-8.5q-0.5-0.6-0.2-1.3 0.3-0.7 1.1-0.7h7.6q2.3 0 3.9 1.6z"/><path class="c" d="m323.8 299.9q-3 1.1-6.3 0.5 3.1-0.9 6.3-0.5z"/><path class="e" d="m80.7 333.8q0.3 1.7 1.5 2.9 0.5 0.1 0.7 0.5 1.4 1.3 3.5 1.4 15.2 0.8 31.1 0.1l0.6 8.1q0.1 1.2-1.1 1.1l-33.3-0.1q-2.3-1-4.8-0.9-6.2-1.8-8.1-7.1 0.3-2.7-0.8-3.4v-35.5q0-0.9 0.9-0.9h8.2q0.9 0 0.9 0.8z"/><path class="e" d="m181.4 311.6q-0.8 1.8 0.5 2.3 1.2 13.7-1.3 26.2-1.7 1.2-2.5 2.7-0.3 0.6-0.8 0.9-1.4 0.9-2.3 2l-3.3 1.4q-2.4-0.4-4.1 0.8h-29.5q-1.9-1.2-4.3-1.1-1.6-0.4-2.9-1.3l-3.5-3.1q-1.9-2.4-2.6-5.7 0.2-1.7-0.6-2.5-0.7-11.3 0-19.7 1-11.7 13.3-14.1 1.9 0.7 3.8-0.3 12.3-0.5 24.8-0.1 8.7 0.3 13.5 7.4 1.4 2 1.8 4.2zm-40.5-1.6q-5.4 0.8-5.9 5.6-1.6 8.3 0 16.6l0.4 2q-0.3 1.1 1.2 1.9 1 1.4 3.1 1.9 1.3 1.2 3 0.6 10 0.8 20.1 0 2.5 0.7 3.4-0.6 2.4-0.4 4.2-3.1 0.2 0.3 0.4-0.8 1.8-8.9 0.1-17.8 0-5.2-5.6-6.4-12.2-2-24.4 0.1z"/><path class="e" d="m244.7 309.6q-18.2-1.3-36.1 0.1-5.3 0.9-6.3 4.3-1.7 1.6-0.9 3.4-1 6.7 0 13.3-0.4 7.1 6.6 8 11.6 0.8 23.3 0 1.6-0.1 2.5-0.4 0.9-0.3 1-1.2 0.4-3.8 0.1-7.9-0.1-0.6-0.3-0.8-0.3-0.3-0.8-0.5l-18.8-0.3q-0.2-0.2-0.5-0.4l-0.4-6.7q4.4-0.8 8.2-0.7 12 0.3 21.8 0.1 1.2 0 1.2 1.2 0 9.8-0.5 20.6-0.2 3.8-3.7 5.4-1.9-0.1-3.3 0.6-0.2 0.2-0.6 0.2-14.5 0.1-29 0.2-1.2 0-4.2-0.5h0.9q0.1 0 0.1-0.1 0-0.2-0.1-0.2l-3.9-0.4q-6.3-2-8.6-7.2-1.7-4.1-1.5-11.9 0.3-6.2 0.2-12.6-0.1-4.9 1.5-7.1 4.7-7 12.2-7.5 2.9 0.4 5.6-0.3 5-0.5 8.4-0.4 12.9 0.3 25.8 0.2 0.5 0 0.4 0.4z"/><path class="e" d="m265.5 300.3v47.5l-9.8 0.2q-0.7 0-0.7-0.7v-46.7q0-0.5 0.6-0.5z"/><path class="f" d="m359.3 323.6q0 7.9-5.1 14.6-3.8 5.1-6.5 1.8-1.3-1.6 0-3 6.4-6.6 6.4-13.5 0-6.9-6.3-13.5-1.4-1.4-0.1-2.9 2.8-3.3 6.6 1.7 5 6.8 5 14.7z"/><path class="e" d="m345.4 320.9v5.4q-0.7 1.7-2.1 2.8l-3.6 1.9q-0.4 0.3-0.5 0.7-0.4 1.2 0.6 2.4l0.6 5.9q-0.6 1.9 0.3 3.6l1.6 16.6q-1.3 0.7-4.8 0.7-1.7 0-2.3 0.1-0.4 0-0.9-0.1-0.3-0.5-0.7-0.7l0.5-6.8q1-1.7 0.5-3.6l1.4-16.3q1.3-1.1 0.3-2.3-0.7-1-1.4-0.5-4-2.1-4.8-5.9-0.8-3.9 2.4-7 2.7-2.6 7.2-2 4.1 0.6 5.7 5.1zm-2.1 2.5q0-1.1-0.4-2.1-0.4-0.9-1.2-1.7-0.7-0.7-1.7-1.1-1-0.4-2-0.4-1.1 0-2.1 0.4-0.9 0.4-1.7 1.1-0.7 0.8-1.2 1.7-0.4 1-0.4 2.1 0 1 0.4 2 0.5 1 1.2 1.7 0.8 0.8 1.7 1.2 1 0.4 2.1 0.4 1 0 2-0.4 1-0.4 1.7-1.2 0.8-0.7 1.2-1.7 0.4-1 0.4-2z"/><path fill-rule="evenodd" class="c" d="m338 328.7c-3 0-5.4-2.4-5.4-5.3 0-3 2.4-5.4 5.4-5.4 2.9 0 5.3 2.4 5.3 5.4 0 2.9-2.4 5.3-5.3 5.3z"/><path class="e" d="m266 324.2q0.3-0.3 0-0.7 0.3 0.4 0 0.7z"/><path class="c" d="m204 347.6q-1.5 0.1-3-0.7l3.9 0.4q0.1 0 0.1 0.2 0 0.1-0.1 0.1z"/></svg>